<svg width="53" height="72" viewBox="0 0 53 72" fill="none" xmlns="http://www.w3.org/2000/svg">
<path d="M49.0429 71.7737C51.0104 71.7737 52.6293 70.1549 52.6293 68.1874V54.9425C48.1552 56.4343 45.2047 58.1694 43.3562 60.6969C41.5288 63.1956 40.6541 66.6369 40.6273 71.7737H49.0429ZM38.2395 71.7737C38.2651 66.334 39.1933 62.3336 41.424 59.2835C43.792 56.0456 47.5232 54.0662 52.6293 52.4496V41.2396C48.2744 44.3059 43.3814 47.8113 39.4007 51.8748C36.376 54.9624 33.9299 58.3242 32.6906 61.9072C31.6249 64.9883 31.4169 68.2296 32.492 71.7737H38.2395ZM30.0271 71.7737C29.0452 68.0074 29.2913 64.4185 30.429 61.1292C31.8333 57.069 34.5093 53.4516 37.6881 50.2066C42.3055 45.4932 47.9993 41.5446 52.6293 38.298V21.0533C50.5745 25.2019 47.6365 29.1213 44.4262 32.8894C38.0237 40.4043 30.457 47.4441 26.137 54.4634C24.6981 56.8016 23.4692 58.465 22.6138 61.3606C21.9275 63.6837 21.4843 66.8763 21.4666 71.7737H30.0271ZM19.0742 71.7737C19.0932 66.7205 19.5541 63.302 20.3265 60.6876C21.2814 57.4553 22.692 55.4873 24.067 53.258C29.078 43.035 29.8183 33.8973 27.2679 24.4925C25.1582 16.713 29.1717 12.532 14.4762 7.75867e-05H7.74274C9.15366 3.13935 11.2255 6.34753 13.4131 9.98355C17.3886 16.591 24.3291 24.9337 21.5274 35.8939C20.1603 41.242 18.0807 45.9755 15.6032 51.8748C13.6095 56.622 8.72402 65.7361 7.90862 71.7737H19.0742ZM5.34094 71.7737C6.48909 64.3121 7.34354 65.1665 9.33725 60.6876C12.1878 54.2838 17.4177 43.8053 19.1349 35.8939C17.4177 21.8745 15.2478 19.9021 11.331 13.3922C8.98415 9.49172 6.61842 3.73167 5.10963 7.75867e-05H3.58398C1.61654 7.75867e-05 -2.54075e-05 1.62607 -2.54075e-05 3.5935V8.23582C6.20427 17.8871 11.331 19.9372 11.9552 35.9103C10.823 41.5832 10.8885 45.9422 8.72402 50.3842C6.81244 54.3072 3.9347 58.3247 -2.54075e-05 63.3651V68.1874C-2.54075e-05 70.1549 1.61654 71.7737 3.58398 71.7737H5.34094ZM-2.54075e-05 59.461C2.93337 55.5833 5.08052 52.3893 6.56987 49.3328C8.58888 45.1894 8.25964 41.5832 10.2533 35.9103C11.0598 25.1083 6.30522 20.8422 -2.54075e-05 12.2568V59.461ZM29.4454 45.9941C33.5573 41.1033 38.3758 36.2901 42.5969 31.3356C47.3172 25.7951 51.2208 20.1452 52.6293 14.1352V3.5935C52.6293 2.16006 51.7656 0.915385 50.5382 0.341286C48.1553 10.8463 43.7559 20.9658 36.8143 29.4643C36.7088 29.5945 36.5772 29.7011 36.4278 29.7772C36.2785 29.8533 36.1149 29.8971 35.9475 29.9059C35.6443 29.9223 35.3462 29.8229 35.1137 29.6276C34.8812 29.4324 34.7316 29.156 34.6952 28.8546C31.8994 19.9372 34.6952 12.2568 27.3052 0.000217526H17.4177C23.2389 8.33328 25.9182 2.27859 29.5715 23.8756C31.5461 31.1569 31.617 38.4234 29.4454 45.9941ZM36.319 25.677C43.5344 19.3675 45.9512 9.23448 48.1364 7.75867e-05H43.1272C43.0614 4.64074 42.0129 8.94865 39.3212 13.745C39.2194 13.9262 39.0721 14.0777 38.8939 14.1846C38.7157 14.2915 38.5127 14.3503 38.3049 14.3549C38.0235 14.3614 37.7488 14.2684 37.5291 14.0923C37.3095 13.9163 37.159 13.6683 37.104 13.3922C36.2303 8.92328 35.3209 4.45958 34.3938 7.75867e-05H29.7164C33.6082 7.40528 35.602 13.956 36.319 25.677ZM38.6507 8.97881C42.5969 5.15842 40.5686 3.09703 40.7021 7.75867e-05H36.819C36.8143 3.07664 37.104 6.20961 38.6507 8.97881Z" fill="#000"/>
</svg>
